<svg id="Layer_1" data-name="Layer 1" xmlns="http://www.w3.org/2000/svg" viewBox="0 0 547.47 227.97"><defs>
<style>.cls-1,.cls-2{fill:aqua;}.cls-1{fill-rule:evenodd;}</style></defs>
<path class="cls-1" d="M98.88,31.06V228l28.67-37.1V117.32L155.89,89v65.3l28.68-37.1V2.39H98.88Zm28.67,45.67V31.06h28.34V48.43Z"/><polygon class="cls-1" points="43.28 28.11 17.55 2.35 0.44 2.35 0.44 25.82 0.44 70.96 0.44 82 0.44 117.14 29.15 154.28 29.15 107.37 29.15 99.77 29.15 82.84 29.15 54.53 43.28 68.7 57.45 54.53 57.45 82.84 57.45 143.96 57.45 190.87 86.16 227.97 86.16 181.06 86.16 87.2 86.16 70.96 86.16 31.06 86.16 25.82 86.16 2.35 69.05 2.35 57.45 13.94 43.28 28.11"/>
<path class="cls-2" d="M201.08,65a25.89,25.89,0,0,1-2.5-12c0-9.68,3.59-18.27,11.34-27.61C218,15.76,229.68,7.92,240.86,4.75c3.5-1,4.58-1.08,9.5-1.08,6.26,0,8.84.5,13.51,2.75,5.34,2.67,9.43,8.09,11.26,14.93,1,3.67,1.17,11.84.42,16.09C273.3,49.28,265,59.87,256.45,61.71l-2,.42.25,16.67,2.09.75c7.42,2.51,13.92,5.09,16.17,6.51,7.26,4.25,11.43,11.59,10.18,17.59a15.59,15.59,0,0,1-2.92,6.51c-.92,1.08-1,1.42-1,6.17,0,5.5-.25,6.42-2.09,6.42s-2.33-.92-2.5-4.67c-.17-2.92-.25-3.34-.83-3.09-9.68,4.09-19.93,4.59-34.19,1.67-2.09-.41-3.76-.75-3.84-.75s-.17.5-.17,1.09a8.23,8.23,0,0,1-2.75,6.08,8.85,8.85,0,0,1-9.42,2.17l-1.58-.58v9c0,5.51-.17,9.43-.42,9.84a1.87,1.87,0,0,1-1.75.75c-1,0-1.5-.25-1.75-.75s-.42-5.17-.42-12.5V119.25l-2-5.26a66.92,66.92,0,0,0-3.17-7.33c-2.5-4.84-2.34-9.51.5-12.6a9.71,9.71,0,0,1,3.33-2.33,9,9,0,0,1,10,2.92c.84,1,1.67,1.33,5.51,2.33,11.25,3,19.34,4.26,25.51,3.92,4.17-.16,5.17-.42,4.67-.92-.16-.16-6.08-2.25-13.17-4.67-19.27-6.58-25.85-9.34-32.61-13.75C209,76.89,204.08,71.47,201.08,65Zm19.43-2.58c4.5,4.75,10.42,7.92,23.68,12.76L250,77.3l.16-16.43-1.75-1.75A8.56,8.56,0,0,1,247.11,48c1.17-1.67,2.5-2.59,5.59-3.92,1.42-.58,3.42-3.42,4.84-6.84.83-2.08,1-3.08,1-6.25,0-6.59-1.34-9.09-5.34-9.84-8.67-1.59-23.1,6.59-31.44,17.76C214.59,48.45,214.17,55.87,220.51,62.46Z"/>
<path class="cls-2" d="M287.13,95.31a34.82,34.82,0,0,1,5.34-6.08l4.59-4.59-1.17-11.59c-1.5-14.43-2.34-26.18-2.59-34.86a82.94,82.94,0,0,0-.91-10.09c-.59-3-.59-4.17-.17-9,.58-6.67.83-7.93,2.5-9.84a8.64,8.64,0,0,1,14.76,2.25c.58,1.33.75,3.5.92,14.92.33,12.1,1.58,34.11,2.33,38.2l.25,1.58,2.84-3.83c12.59-17,24.43-37.2,29.35-49.87a31.47,31.47,0,0,1,3.09-6.17c5.58-6.34,16.17-1.42,15.09,7.09a28.56,28.56,0,0,1-1.42,4.67l-1.16,2.75V34.44c0,15.26-.09,15.59-2.51,15.34-2-.16-2.25-1.08-2.25-10.17v-8l-3.33,6.09c-9.26,16.6-22.6,36.11-33,48.12l-2,2.33,5.34-.25c33.44-1.58,36-1.5,39.69,2.09a7.61,7.61,0,0,1,2.59,6.33,6.45,6.45,0,0,1-1.09,4.26,9.65,9.65,0,0,1-4.83,3.83l-1.17.42L358,119.75c-.25,15.92-.25,16.26-2.17,16.26a2.24,2.24,0,0,1-1.5-.75c-.58-.59-.66-2.25-.66-15.68,0-11.59-.09-15-.5-15.18a36.42,36.42,0,0,0-4.42,0c-11.51.42-24.77,1-27.85,1.17-4,.25-4,.25-2.67,4.5,1.66,5.17.58,8.84-3.26,11.68l-1.25.92-.16,7.33c-.25,7.09-.25,7.26-1.17,8s-1.09.83-2,.5c-1.42-.5-1.59-1.33-1.59-8.51,0-6-.08-7-.58-7-1.17,0-3.67-1.5-4.84-2.92-1.25-1.58-2.16-4.25-2.83-8.25-.75-4.84-.42-4.42-3.34-4.17-3.42.16-4.83-.17-7-1.59A8.9,8.9,0,0,1,287.13,95.31Z"/>
<path class="cls-2" d="M362.84,53.87a41.32,41.32,0,0,1-.25-6.84c.42-8.92,4.59-17.59,12-24.76,5.17-5,9.43-7.51,16.1-9.26,3.5-1,4.5-1.08,11.17-1.08,8.34,0,11.09.58,16.51,3.25l3.17,1.58V14.34c0-6,.92-9.34,3.25-11.67,4.34-4.5,12.09-3.09,14.26,2.58.59,1.67.67,2.26.25,6.17-.75,6.93-1,22.69-.5,27.44.25,2.25.59,5.67.84,7.67a30.25,30.25,0,0,0,.75,4.92,12.54,12.54,0,0,1-.34,7.26,9,9,0,0,1-7.75,4.92,8.1,8.1,0,0,1-6.09-2.76c-2.25-2.25-2.83-3.83-3.92-11-.83-5.67-1.67-7.76-4.25-11.43-2.5-3.42-4.25-5.33-6.26-6.75l-1.66-1.17v6.09c0,6.75-.34,7.75-2.42,7.75s-2.34-1-2.34-8.34.17-7-3.42-7a28.77,28.77,0,0,0-10.34,2.25c-3.17,1.5-7.67,6.17-9.5,9.92-2.67,5.43-2.84,8.34-.67,12.85A27.87,27.87,0,0,0,394,66.71c7.92,4.17,21.6,7.42,31.94,7.67,3.75.09,4.33.25,6,1.17A7.87,7.87,0,0,1,436,82.39a7.16,7.16,0,0,1-.84,4.59c-2.08,4.25-5.58,6.92-9,6.92a47.37,47.37,0,0,0-12.09,2.75c-1.42.58-5.26,2.67-8.51,4.59-5.84,3.5-5.84,3.5-4.34,3.66,2.76.17,16.1-1.58,27.69-3.66,4.42-.84,5.92-.76,8.25.33,6,3,6.18,11.51.34,15.09l-1.75,1.09-.09,13.17c0,14.51-.08,15-2.16,15.26a1.8,1.8,0,0,1-1.92-.75c-.5-.83-.59-2.67-.59-13.84V118.66l-1.5.17c-.83.17-4.75.83-8.75,1.42-9.84,1.58-13.6,2-18.68,2-12.26,0-20.77-3.25-24-9.09-1.08-1.92-1.17-2.5-1.17-5.67s.17-3.84,1.09-5.75c2-4.09,6.59-8.26,14.34-13,1.84-1.09,3.17-2.17,3-2.34a17.57,17.57,0,0,0-2.42-.92,67.25,67.25,0,0,1-11.92-6.08,17,17,0,0,0-2.5-1.59c-.09,0-.17,3.67-.17,8.26s-.17,8.67-.42,9.17a2.13,2.13,0,0,1-2.66,1.25c-1.5-.42-1.67-1.83-1.67-12.59V73.47l-2.34-3C366.93,65.13,363.84,59,362.84,53.87Z"/>
<path class="cls-2" d="M441.64,44.28c-1.08-7.34,9.42-23.85,20.1-31.44a59.63,59.63,0,0,1,24.68-10c6.59-1,17.85-.67,23.27.75A47.1,47.1,0,0,1,536,22.35c5.33,8,8.09,15.26,10.26,26.68,1.08,5.84,1,18.93-.17,24.35C542,92.48,531,109.07,518.61,114.91l-2.42,1.17-.25,26.68-.92.75c-1.16,1-1.83,1-2.83,0-.75-.75-.75-1.33-.75-13.34V117.58l-1.5.25c-1.92.33-11.09.33-16,0l-4-.33-.66,1.58c-1.17,2.59-4.59,4.67-7.76,4.75s-7.34-3.16-8.34-6.42c-.41-1.58-.58-1.67-3.67-2-4.42-.58-9.84-1.92-11.59-2.83a9.13,9.13,0,0,1-4.92-9.09,9.65,9.65,0,0,1,4.5-6.26c2.17-1.17,4.59-1.25,9.26-.16a21.38,21.38,0,0,0,3.75.58c.25-.25-1.25-13.51-3.5-31.86-1.08-8.42-2.25-18.42-2.58-22.26s-.67-7.09-.67-7.42-.67.41-1.42,1.5c-1.17,1.92-1.25,2.25-1,4.34.42,3.75-.92,6.67-3.84,8.5l-1.5,1v9.93c0,11.25-.16,11.84-2.5,11.59-2.08-.17-2.25-1-2.25-11.43,0-9.25,0-9.34-.83-9.34C446.39,52.2,442.31,48.45,441.64,44.28Zm37.94-21.35s.34.92.75,1.92c.67,1.5.92,3.09,1.17,10.51.42,8.59.84,12.59,3,29.43.59,4.42,1.67,14.1,2.51,21.35s1.58,13.43,1.75,13.59,10.25,1.09,14,1.26a23.39,23.39,0,0,0,3.75-.42c4.92-.92,8.92-3.75,13.17-9.51,4.09-5.42,7.51-13.34,9.26-21.35,1.08-5,.92-13.25-.33-19.43C527,42.11,525.28,38,521.78,32.52c-1.84-2.75-6.42-7.42-7.26-7.42-.16,0-.33,2-.33,4.84,0,5.58-.42,6.67-2.5,6.5-1.92-.25-2.25-1.25-2.25-8.25V22l-2-.83c-6.34-2.33-16.77-2.08-24.77.58A26.86,26.86,0,0,0,479.58,22.93Z"/>
</svg>
